<svg xmlns="http://www.w3.org/2000/svg" xmlns:xlink="http://www.w3.org/1999/xlink" width="352" height="89" viewBox="0 0 352 89">
  <defs>
    <filter id="Ellipse_2" x="0" y="0" width="89" height="89" filterUnits="userSpaceOnUse">
      <feOffset dy="3" input="SourceAlpha"/>
      <feGaussianBlur stdDeviation="3" result="blur"/>
      <feFlood flood-opacity="0.161"/>
      <feComposite operator="in" in2="blur"/>
      <feComposite in="SourceGraphic"/>
    </filter>
    <linearGradient id="linear-gradient" x1="0.5" y1="1" x2="0.5" gradientUnits="objectBoundingBox">
      <stop offset="0" stop-color="#00b59c"/>
      <stop offset="1" stop-color="#9cffac"/>
    </linearGradient>
    <linearGradient id="linear-gradient-2" x1="0.5" y1="1" x2="0.5" gradientUnits="objectBoundingBox">
      <stop offset="0" stop-color="#c3ffe8"/>
      <stop offset="0.997" stop-color="#f0fff4"/>
    </linearGradient>
    <linearGradient id="linear-gradient-3" x1="0.5" x2="0.5" y2="1" gradientUnits="objectBoundingBox">
      <stop offset="0" stop-color="#05b79c"/>
      <stop offset="1" stop-color="#035c4e"/>
    </linearGradient>
  </defs>
  <g id="Group_129" data-name="Group 129" transform="translate(-15 -31)">
    <text id="SAFE_CITIZENS_LIFE" data-name="SAFE CITIZENS LIFE" transform="translate(109 82)" fill="#fff" font-size="25" font-family="Montserrat-Bold, Montserrat" font-weight="700"><tspan x="0" y="0">SAFE CITIZENS LIFE</tspan></text>
    <g id="Group_13" data-name="Group 13" transform="translate(-133 86)">
      <g transform="matrix(1, 0, 0, 1, 148, -55)" filter="url(#Ellipse_2)">
        <circle id="Ellipse_2-2" data-name="Ellipse 2" cx="35.5" cy="35.5" r="35.5" transform="translate(9 6)" fill="#fff"/>
      </g>
      <g id="Group_10" data-name="Group 10" transform="translate(159.171 -40.058)">
        <g id="Group_7" data-name="Group 7" transform="translate(46.424 19.952) rotate(-8)">
          <g id="Group_5" data-name="Group 5" transform="translate(0 1.878) rotate(-7)">
            <g id="Group_1" data-name="Group 1" transform="translate(0)">
              <path id="Path_18" data-name="Path 18" d="M14.818,3.225C11.538,3.225,8.137.184,8.1.154a.593.593,0,0,0-.8,0C7.274.184,3.882,3.225.593,3.225A.593.593,0,0,0,0,3.818v7.1c0,5.751,4.277,8.048,7.494,9.277a.593.593,0,0,0,.423,0c4.511-1.722,7.494-4.408,7.494-9.277v-7.1A.593.593,0,0,0,14.818,3.225Z" fill="url(#linear-gradient)"/>
            </g>
          </g>
          <g id="Group_6" data-name="Group 6" transform="translate(4.257 7.367) rotate(-7)">
            <g id="Group_3" data-name="Group 3" transform="translate(0 0)">
              <path id="Path_19" data-name="Path 19" d="M4.149,0A4.149,4.149,0,1,0,8.3,4.149,4.154,4.154,0,0,0,4.149,0Zm1.6,3.976L3.976,5.754a.593.593,0,0,1-.838,0l-.593-.593a.593.593,0,0,1,.838-.838l.174.174L4.916,3.137a.593.593,0,1,1,.838.838Z" fill="url(#linear-gradient-2)"/>
            </g>
          </g>
        </g>
        <g id="Group_9" data-name="Group 9" transform="translate(0 0)">
          <g id="Ellipse_1" data-name="Ellipse 1" transform="translate(5.194 26.159) rotate(20)" stroke="#707070" stroke-width="1" opacity="0.1">
            <ellipse cx="24.193" cy="5.259" rx="24.193" ry="5.259" stroke="none"/>
            <ellipse cx="24.193" cy="5.259" rx="23.693" ry="4.759" fill="none"/>
          </g>
          <g id="Group_8" data-name="Group 8" transform="translate(0 7.459) rotate(-7)">
            <path id="Path_1" data-name="Path 1" d="M13.521,9.012,8.079,5.183A9.477,9.477,0,0,0,4.434.532C1.985-.882,0,.619,0,3.884s1.985,7.058,4.434,8.472a2.788,2.788,0,0,0,3.007.168Zm0,0" transform="translate(27.999 31.247)" fill="#23292e"/>
            <path id="Subtraction_1" data-name="Subtraction 1" d="M41,42.37a.621.621,0,0,1-.316-.086L17.112,28.7a13.142,13.142,0,0,0-8.947-1.537l-5.54-6.811A5.256,5.256,0,0,1,0,15.81V14a1.8,1.8,0,0,1,.939-1.578L20.424.985c.03-.019.061-.038.093-.055a1.786,1.786,0,0,1,.833-.208,1.817,1.817,0,0,1,.283.022L23.269,1,26.6.375A21.689,21.689,0,0,1,41.522,2.943a17.982,17.982,0,0,1,7.6,8.728l1.949,4.76.246.161a.647.647,0,0,0-.314.2c-.136.155-3.363,3.8-6.894,4.238a.649.649,0,0,0-.566.724l.948,7.722c.746,6.072,5.367,8.005,8.778,8.931a41.441,41.441,0,0,1-11.36,3.807l-.72.13a1.438,1.438,0,0,1-.145.024Zm20.2-15.318-.165-1.347a5.136,5.136,0,0,1,.166,1.3v.05Z" transform="translate(0 1.297)" fill="url(#linear-gradient-3)"/>
            <path id="Path_3" data-name="Path 3" d="M41.386,25.229a9.437,9.437,0,0,0-3.714-4.745l-6.163-4.052-1.848-4.513A18.436,18.436,0,0,0,21.8,2.851,21.69,21.69,0,0,0,7.039.375L3.709,1,2.073.744A1.794,1.794,0,0,0,0,2.516V4.329A5.242,5.242,0,0,0,2.624,8.871l5.541,6.811a13.145,13.145,0,0,1,8.947,1.537L40.689,30.8a.64.64,0,0,0,.96-.555V26.856a4.884,4.884,0,0,0-.263-1.627Zm0,0" transform="translate(0 12.778)" fill="#48d7a3"/>
            <path id="Path_4" data-name="Path 4" d="M8.868,9c0,3.265-1.985,4.766-4.434,3.352S0,7.149,0,3.884,1.985-.882,4.434.532,8.868,5.739,8.868,9Zm0,0" transform="translate(27.999 31.247)" fill="#2e373d"/>
            <path id="Path_5" data-name="Path 5" d="M4.36,4.427c0,1.606-.976,2.343-2.18,1.648A5.222,5.222,0,0,1,0,1.91C0,.3.976-.433,2.18.261A5.221,5.221,0,0,1,4.36,4.427Zm0,0" transform="translate(30.253 34.523)" fill="#cecece"/>
            <path id="Path_6" data-name="Path 6" d="M2.365,2.4c0,.871-.53,1.271-1.182.894A2.833,2.833,0,0,1,0,1.036C0,.165.529-.235,1.182.142A2.832,2.832,0,0,1,2.365,2.4Zm0,0" transform="translate(31.251 35.973)" fill="#627681"/>
            <path id="Path_7" data-name="Path 7" d="M8.868,9c0,3.265-1.985,4.766-4.434,3.352S0,7.149,0,3.884,1.985-.882,4.434.532,8.868,5.739,8.868,9Zm0,0" transform="translate(0.939 15.812)" fill="#2e373d"/>
            <path id="Path_8" data-name="Path 8" d="M4.36,4.427c0,1.605-.976,2.343-2.18,1.648A5.22,5.22,0,0,1,0,1.91C0,.3.976-.434,2.18.262A5.221,5.221,0,0,1,4.36,4.427Zm0,0" transform="translate(3.192 19.087)" fill="#cecece"/>
            <path id="Path_9" data-name="Path 9" d="M2.365,2.4c0,.87-.53,1.271-1.182.894A2.832,2.832,0,0,1,0,1.036C0,.165.529-.235,1.182.142A2.832,2.832,0,0,1,2.365,2.4Zm0,0" transform="translate(4.19 20.537)" fill="#627681"/>
            <path id="Path_10" data-name="Path 10" d="M2.675,1.192C3.662,2.5,4.132,4.34,3.724,5.306S2.183,6,1.2,4.692-.261,1.544.147.578,1.687-.114,2.675,1.192Zm0,0" transform="translate(40.384 32.515)" fill="#fff"/>
            <path id="Path_12" data-name="Path 12" d="M3.564,18.641,20.8,8.526,17.318,1.366A2.426,2.426,0,0,0,13.947.312L2,7.034A3.913,3.913,0,0,0,.4,12.163Zm0,0" transform="translate(29.223 9.818)" fill="#03b69c"/>
            <path id="Path_13" data-name="Path 13" d="M21.67,13.99,19.456,9.845a20.391,20.391,0,0,0-9.073-8.731A11.079,11.079,0,0,0,0,1.485Zm0,0" transform="translate(8.35 14.234)" fill="#03b69c"/>
            <path id="Path_14" data-name="Path 14" d="M9.139,7.618,6.924,3.474A20.36,20.36,0,0,0,4.562,0a2.407,2.407,0,0,0-.915.293L0,2.344Zm0,0" transform="translate(39.524 9.838)" fill="#6ae7a6"/>
            <path id="Path_16" data-name="Path 16" d="M17.927.256,16.982.093h0a6.422,6.422,0,0,0-4.306.767L2.185,6.917A4.367,4.367,0,0,0,1.1,13.595l1.077.184L21.734,2.3A6.421,6.421,0,0,0,17.927.256Zm0,0" transform="translate(1.535 0)" fill="#04b79c"/>
            <path id="Path_17" data-name="Path 17" d="M1.1,13.6A4.368,4.368,0,0,1,2.184,6.918L12.675.862a6.431,6.431,0,0,1,7.983,1.253Zm0,0" transform="translate(2.611 0.184)" fill="#24c69f"/>
          </g>
        </g>
      </g>
    </g>
  </g>
</svg>
